<?xml version="1.0" encoding="UTF-8"?>
<svg id="Layer_1" data-name="Layer 1" xmlns="http://www.w3.org/2000/svg" xmlns:xlink="http://www.w3.org/1999/xlink" viewBox="160 240 920 300">
  <defs>
    <style>
      .cls-1 {
        fill-rule: evenodd;
      }

      .cls-1, .cls-2 {
        fill: #fff;
      }

      .cls-3 {
        fill: url(#linear-gradient-5);
      }

      .cls-4 {
        fill: url(#linear-gradient-4);
      }

      .cls-5 {
        fill: url(#linear-gradient-3);
      }

      .cls-6 {
        fill: url(#linear-gradient-2);
      }

      .cls-7 {
        fill: url(#linear-gradient);
      }
    </style>
    <linearGradient id="linear-gradient" x1="256.7" y1="517.38" x2="259.74" y2="257.02" gradientUnits="userSpaceOnUse">
      <stop offset=".2" stop-color="#c2a882"/>
      <stop offset=".5" stop-color="#987d4f"/>
      <stop offset=".8" stop-color="#c2a882"/>
    </linearGradient>
    <linearGradient id="linear-gradient-2" x1="250.15" y1="517.3" x2="253.19" y2="257.02" xlink:href="#linear-gradient"/>
    <linearGradient id="linear-gradient-3" x1="287.43" y1="517.74" x2="290.47" y2="257.38" xlink:href="#linear-gradient"/>
    <linearGradient id="linear-gradient-4" x1="296.56" y1="517.84" x2="299.6" y2="257.49" xlink:href="#linear-gradient"/>
    <linearGradient id="linear-gradient-5" x1="266.97" y1="517.5" x2="270.01" y2="257.14" xlink:href="#linear-gradient"/>
  </defs>
  <!-- background removed -->
  <g>
    <g>
      <path class="cls-7" d="M291.92,411.07c-3.87,4.31-7.43,7.66-9.81,9.77-1.88,1.65-3.03,2.55-3.03,2.55,0,0-25.06,22.28-45.02,42.94-19.97,20.66-32.04,55.79-32.04,55.79l.15-3.71c-1.05-13.02,3.31-27.68,9.92-41.61,11.79-24.88,30.73-47.47,38.77-54.34,5.52-4.71,11.02-10.05,15.44-14.54,5.62-5.71,9.51-10.07,9.51-10.07.21-.24.42-.49.62-.73,19.01-22.48,16.93-37.75,16.93-37.75,1.33-16.93-15.37-33.18-24.62-40.81-3.49-2.89-5.92-4.54-5.92-4.54-2.54-2.08-4.87-4.12-7.01-6.11-3.41-3.17-6.35-6.22-8.86-9.11-14.28-16.39-15.36-27.81-15.36-27.81,16.97,18.77,25.92,25.02,33.2,29.09,4.75,2.66,8.79,4.38,13.88,8.06.15.1.3.22.46.33,13.19,9.72,32.28,21.03,34.01,54.03,1.03,19.57-11.14,37.35-21.22,48.57Z"/>
      <path class="cls-6" d="M269.22,389.14c-2.03,3.06-4.48,6.3-7.41,9.71,0,0-1.06,1.19-2.87,3.13-.41-.34-.63-.51-.63-.51-28.36-30.94-25.68-52.75-20.47-68.71,2-6.12,6.4-12.34,11.08-17.67.81.56,6.76,4.75,13.19,11.12-14,17.64-12.53,39.21,7.11,62.93Z"/>
      <path class="cls-5" d="M324.59,253.3c-14.58,23.78-31.27,39.9-45.92,54.84-2.17,2.21-4.29,4.4-6.35,6.58-1.22,1.28-2.41,2.56-3.58,3.84-3.49-2.89-5.92-4.54-5.92-4.54-2.54-2.08-4.87-4.12-7.01-6.11.99-.95,1.93-1.82,2.81-2.62,3.47-3.13,5.94-5.03,5.94-5.03l.23-.18,59.8-46.78Z"/>
      <path class="cls-4" d="M328.76,461.86c-3.94-5.44-27.78-25.5-46.65-41.02-2.44-2.01-4.79-3.93-7-5.74-3.3-2.7-6.29-5.13-8.81-7.18,5.62-5.71,9.51-10.07,9.51-10.07.21-.24.42-.49.62-.73,2.39,2.44,4.97,4.9,7.74,7.37,2.43,2.18,5.02,4.38,7.75,6.58.61.49,1.23.99,1.85,1.48,34.99,37.02,34.99,49.31,34.99,49.31Z"/>
      <circle class="cls-3" cx="269.93" cy="263.71" r="16.83"/>
    </g>
    <g>
      <path class="cls-2" d="M369.43,321.5l-17.15,9v-5.23l17.15-10.18v6.41ZM354.6,339.53v18.92h20.37v6.1h-20.37v19.21h22.98v6.1h-30.24v-56.42h30.24v6.1h-22.98Z"/>
      <polygon class="cls-2" points="421.77 383.75 441.26 383.75 441.26 389.85 414.21 389.85 414.21 333.72 421.77 333.72 421.77 383.75"/>
      <path class="cls-2" d="M505.79,371.24l-9.88-28.23-10.18,28.23h20.06ZM508.12,377.34h-24.42l-4.65,12.51h-7.86l20.35-55.84h8.44l20.35,55.84h-7.84l-4.37-12.51Z"/>
      <polygon class="cls-2" points="599.14 389.85 591.57 389.85 562.21 345.06 562.21 389.85 554.93 389.85 554.93 333.43 562.21 333.43 591.57 378.21 591.57 333.43 599.14 333.43 599.14 389.85"/>
      <polygon class="cls-2" points="714.86 389.85 691.88 364.25 691.88 389.85 684.33 389.85 684.33 333.72 691.88 333.72 691.88 359.6 714.86 333.72 724.15 333.72 698.87 361.64 724.44 389.85 714.86 389.85"/>
      <polygon class="cls-2" points="765.74 383.75 785.51 383.75 785.51 389.85 758.46 389.85 758.46 333.72 765.74 333.72 765.74 383.75"/>
      <path class="cls-1" d="M871.77,333.81v56.06h-7.55v-56.06h7.55ZM826.46,333.81v56.06h-7.55v-56.06h7.55Z"/>
      <polygon class="cls-2" points="954.15 389.85 946.87 389.85 917.5 345.06 917.5 389.85 909.95 389.85 909.95 333.43 917.5 333.43 946.87 378.21 946.87 333.43 954.15 333.43 954.15 389.85"/>
      <rect class="cls-2" x="992.31" y="333.81" width="7.55" height="56.06"/>
      <polygon class="cls-2" points="1068.4 389.85 1045.42 364.25 1045.42 389.85 1037.87 389.85 1037.87 333.72 1045.42 333.72 1045.42 359.6 1068.4 333.72 1077.7 333.72 1052.41 361.64 1077.99 389.85 1068.4 389.85"/>
    </g>
  </g>
</svg>